<?xml version="1.0" encoding="utf-8"?>
<!-- Generator: Adobe Illustrator 25.2.3, SVG Export Plug-In . SVG Version: 6.00 Build 0)  -->
<svg version="1.1" id="Layer_1" xmlns="http://www.w3.org/2000/svg" xmlns:xlink="http://www.w3.org/1999/xlink" x="0px" y="0px"
	 viewBox="0 0 600 600" style="enable-background:new 0 0 600 600;" xml:space="preserve">
<style type="text/css">
	.st0{fill:none;stroke:#6B81BE;stroke-width:2;stroke-linecap:round;stroke-linejoin:round;stroke-miterlimit:10;}
	.st1{fill:#ECBDBB;}
	.st2{fill:#F68D88;}
	.st3{fill:#6B81BE;}
	.st4{fill:#9AB3DA;}
	.st5{fill:#404B7C;}
	.st6{fill:none;stroke:#ECBDBB;stroke-linecap:round;stroke-linejoin:round;stroke-miterlimit:10;}
	.st7{fill:none;stroke:#404B7C;stroke-linecap:round;stroke-linejoin:round;stroke-miterlimit:10;}
	.st8{fill:none;stroke:#9AB3DA;stroke-linecap:round;stroke-linejoin:round;stroke-miterlimit:10;}
	.st9{fill:none;stroke:#6B81BE;stroke-linecap:round;stroke-linejoin:round;stroke-miterlimit:10;}
	
		.st10{fill:none;stroke:#9AB3DA;stroke-width:2;stroke-linecap:round;stroke-linejoin:round;stroke-miterlimit:10;stroke-dasharray:9;}
	.st11{fill:#EEEEEE;}
	.st12{fill:#FFFFFF;}
</style>
<g id="ORNAMENT_5">
	<g>
		<line class="st0" x1="94.1" y1="76.3" x2="94.1" y2="83.4"/>
		<line class="st0" x1="94.1" y1="97.3" x2="94.1" y2="90.2"/>
		<line class="st0" x1="104.7" y1="86.8" x2="97.5" y2="86.8"/>
		<line class="st0" x1="83.6" y1="86.8" x2="90.8" y2="86.8"/>
	</g>
</g>
<g id="ORNAMENT_4">
	<g>
		<line class="st0" x1="292.1" y1="101.3" x2="292.1" y2="108.4"/>
		<line class="st0" x1="292.1" y1="122.3" x2="292.1" y2="115.2"/>
		<line class="st0" x1="302.6" y1="111.8" x2="295.5" y2="111.8"/>
		<line class="st0" x1="281.6" y1="111.8" x2="288.7" y2="111.8"/>
	</g>
</g>
<g id="ORNAMENT_3">
	<g>
		<line class="st0" x1="59.5" y1="385.2" x2="59.5" y2="392.3"/>
		<line class="st0" x1="59.5" y1="406.2" x2="59.5" y2="399.1"/>
		<line class="st0" x1="70" y1="395.7" x2="62.9" y2="395.7"/>
		<line class="st0" x1="49" y1="395.7" x2="56.1" y2="395.7"/>
	</g>
</g>
<g id="ORNAMENT_2">
	<circle class="st0" cx="73.8" cy="147.2" r="5.2"/>
</g>
<g id="ORNAMENT_1">
	<circle class="st0" cx="246.7" cy="385.1" r="5.2"/>
</g>
<g id="RULER">
	<g>
		<polygon class="st1" points="540.7,37.6 551,42.6 481.8,540.2 472.2,540.2 		"/>
		<path class="st2" d="M407,54.8l-32.1,485.5h97.3l68.4-502.6L407,54.8z M470.8,86.3c-0.8,0.2-1.5,0.4-2.3,0.4
			c-6.9,0.7-12.3-4.5-11.9-11.6c0.4-7.1,6.3-13.3,13.2-14c1.6-0.2,3.2,0,4.6,0.4c4.5,1.4,7.6,5.7,7.3,11.1
			C481.4,79,476.7,84.6,470.8,86.3z"/>
		<path class="st1" d="M470.8,86.3c-0.8,0.2-1.5,0.4-2.3,0.4c-6.9,0.7-12.3-4.5-11.9-11.6c0.4-7.1,6.3-13.3,13.2-14
			c1.6-0.2,3.2,0,4.6,0.4c-5.9,1.7-10.6,7.3-10.9,13.5C463.2,80.6,466.3,84.9,470.8,86.3z"/>
		<g>
			<path class="st1" d="M435.9,71.8c-0.2-1.7-1.7-2.9-3.4-2.7l-26.7,3.1l-0.4,6.2l27.8-3.2C434.9,75,436.1,73.4,435.9,71.8z"/>
			<path class="st1" d="M432,127.7c-0.2-1.7-1.7-2.9-3.4-2.7l-26.4,2.8l-0.4,6.2l27.5-2.9C431,130.9,432.2,129.4,432,127.7z"/>
			<path class="st1" d="M428.1,183.6c-0.2-1.7-1.7-2.9-3.4-2.8l-26.2,2.5l-0.4,6.2l27.2-2.6C427,186.8,428.2,185.3,428.1,183.6z"/>
			<path class="st1" d="M424.2,239.6c-0.1-1.7-1.6-2.9-3.3-2.8l-26,2.2l-0.4,6.2l27-2.3C423.1,242.7,424.3,241.3,424.2,239.6z"/>
			<path class="st1" d="M420.3,295.5c-0.1-1.7-1.6-3-3.3-2.8l-25.8,1.9l-0.4,6.2l26.7-1.9C419.1,298.7,420.4,297.2,420.3,295.5z"/>
			<path class="st1" d="M416.3,351.4c-0.1-1.7-1.6-3-3.3-2.9l-25.6,1.6l-0.4,6.2l26.4-1.6C415.2,354.6,416.5,353.1,416.3,351.4z"/>
			<path class="st1" d="M412.4,407.4L412.4,407.4c-0.1-1.7-1.5-3-3.2-2.9l-25.4,1.3l-0.4,6.2l26.1-1.3
				C411.2,410.5,412.5,409.1,412.4,407.4z"/>
			<path class="st1" d="M408.5,463.3c-0.1-1.7-1.5-3-3.2-3l-25.2,1l-0.4,6.2l25.9-1C407.3,466.4,408.6,465,408.5,463.3z"/>
			<path class="st1" d="M404.6,519.2c0-1.7-1.5-3-3.2-3l-25,0.7l-0.4,6.2l25.6-0.7C403.3,522.4,404.7,520.9,404.6,519.2z"/>
		</g>
	</g>
</g>
<g id="PLANT">
	<g>
		<g>
			<path class="st3" d="M340.1,333.5c0,0-11.9-27.3-45.6-32.8c-33.7-5.5-50.4,17.6-50.4,17.6s17.1,2.4,37.3,18.1
				C301.6,352,323,355.1,340.1,333.5z"/>
			<path class="st3" d="M380.7,220.1c0,0-20.9-33.3-62.7-13.5c0,0,13.5,7.6,30.9,20C366.2,238.9,380.7,220.1,380.7,220.1z"/>
			<path class="st4" d="M349.1,151.2c0,0,0.3,7.9-6.8,7c-6-0.8-6.8-21.4,10.3-22.8c17.5-1.4,34.3,26.6,25.2,82.6
				c-9,56.1-46.5,87.6-44,158.7s23.3,98.2,10.5,160.6h24.5c0,0,4.4-50-11.8-107c-19.4-68.3-5.7-103.4,16-159.3
				c25-64.4,21.5-122.3-6.1-135.9c-25.7-12.7-39.4,13.1-35.9,26.1c3.6,13.1,22,13.2,24.7,3.1C358.5,154.2,349.1,151.2,349.1,151.2z"
				/>
			<path class="st3" d="M347.7,338.5c0,0,7.6-39.2,46.1-58.5s74.9,6.2,74.9,6.2s-15.9,44-56.8,46.3
				C377.5,334.5,358.6,333.5,347.7,338.5z"/>
			<path class="st3" d="M386.4,218.7c0,0,10.7-56.3,74.9-45.9c0,0-6.9,11.6-13.1,25C443.1,208.8,415.7,236.5,386.4,218.7z"/>
		</g>
		<path class="st3" d="M333.4,541.2c0,0-4.3-19.2-18.3-30.9c0,0,17.8,3.2,25.4,27c0,0-0.6-8.6-0.8-10.6s5.3,4.5,7.1,10.1
			c0,0,0.7-19.7-9.3-31.2c0,0,18.8,3.7,24.8,30.3c0,0,1.5-14.2,11.1-21.8c0,0-2.9,11.4-3,20.8c0,0,8.6-24.6,30-37.4
			c0,0-11.8,19-14.6,37c0,0,1.7-3.1,8.6-6.4c0,0-3.8,4.8-6.4,13.2H333.4z"/>
	</g>
</g>
<g id="GROUND">
	<g>
		<g>
			<line class="st0" x1="195.7" y1="562.4" x2="348.2" y2="562.4"/>
			<line class="st0" x1="168.9" y1="562.4" x2="184.9" y2="562.4"/>
			<line class="st0" x1="363.8" y1="562.4" x2="379.7" y2="562.4"/>
		</g>
		<g>
			<line class="st0" x1="321.4" y1="541.2" x2="496" y2="541.2"/>
			<line class="st0" x1="269.4" y1="541.2" x2="300.4" y2="541.2"/>
			<line class="st0" x1="129.7" y1="541.2" x2="233.8" y2="541.2"/>
		</g>
	</g>
</g>
<g id="LEFT_ARM">
	<g>
		<path class="st5" d="M268.9,188.9c0,0-7-4.6-10.3-5.3c-3.3-0.7-11.3,14.9-11.3,14.9l-4.5-4.3c0,0,9.1-16.9,15-16.9
			s13.7,5.8,13.7,5.8L268.9,188.9z"/>
		<path class="st2" d="M200.2,175.3c9,7,21.1,45.2,21.1,45.2s6.3-3.7,14.8,0.7c8.4,4.4,15.2,14.5,5.4,39.6s-25.5,29.1-40.1,20.2
			c-14.7-9-24-45.8-24.8-70.9C175.2,169.2,200.2,175.3,200.2,175.3z"/>
		<path class="st6" d="M221.3,220.5c0,0-5.3,3.9-10.4,18.3"/>
		<path class="st3" d="M227.7,210.8c-0.4-0.1-5.8,11.7-5.8,11.7s2.7,4.8,12.5,8.3c7.8,2.8,10.1,2.1,10.1,2.1l4.2-11.8
			C248.6,221,243.9,213.5,227.7,210.8z"/>
		<g>
			<path class="st1" d="M229,213.2l4.8-16.1c0,0,5-17.7,6.4-19.8c1.4-2.1,12-3.2,14.5-2.2s0.3,5.4-5.4,7.5c0,0,8.2,1.3,11,4.2
				c2.8,2.9,0.3,5.9-1.4,7.3c0,0,2,3.7-2.5,6.5c0,0,1.7,3.7-2.5,6.4c0,0,0.8,4.6-5.8,4.3l-2.8,9C245.2,220.2,235.4,219.7,229,213.2z
				"/>
			<path class="st7" d="M247.9,184.2c0,0-4.4,1.1-2.2,5.4c0,0-4,2.8-1.3,6.4c0,0-4.3,3.3-0.3,6.7c0,0-4.2,2.4-0.5,6"/>
		</g>
		<g>
			<path class="st3" d="M301.3,208.3C301.3,208.3,301.3,208.3,301.3,208.3l-24,50.9c0,0-7.1,8.6-28,2.6
				c-20.9-5.9-19.6-32.6-19.6-32.6l42.1-57.2c0,0,0,0,0,0s10.5-7.5,23.2,5.5C307.5,190.2,301.5,207.7,301.3,208.3z"/>
			<path class="st8" d="M239,255.9c-10.1-9.9-9.3-26.7-9.3-26.7l37.5-51"/>
			<path class="st5" d="M270.2,235.3c0,0-7.8,2.9-9.3,10.9c-1.4,8,5.9,10.5,5.9,10.5l32.3-8l13.7,8L302.6,231l-5.7,7L270.2,235.3z"
				/>
			<path class="st9" d="M296.8,239.2c0,0-1.2,3.7,1.5,7.4"/>
			<path class="st3" d="M302.6,231c0,0-2,4.6-0.9,11.1c1.2,6.5,11,14.5,11,14.5s2.9-5.6,2-13.8C313.8,234.7,302.6,231,302.6,231z"/>
			
				<ellipse transform="matrix(0.9558 -0.294 0.294 0.9558 -55.9208 100.1255)" class="st5" cx="305.1" cy="236.1" rx="0.6" ry="1.1"/>
			
				<ellipse transform="matrix(0.8994 -0.4372 0.4372 0.8994 -77.9749 161.0824)" class="st5" cx="310.9" cy="249.9" rx="0.6" ry="1.1"/>
			
				<ellipse transform="matrix(0.8994 -0.4372 0.4372 0.8994 -75.7437 157.7657)" class="st5" cx="304.8" cy="243.4" rx="0.6" ry="1.1"/>
			
				<ellipse transform="matrix(0.8994 -0.4372 0.4372 0.8994 -73.9246 160.5603)" class="st5" cx="311.8" cy="240.9" rx="0.6" ry="1.1"/>
			
				<ellipse transform="matrix(0.8994 -0.4372 0.4372 0.8994 -74.9465 159.2094)" class="st5" cx="308.4" cy="242.4" rx="0.6" ry="1.1"/>
			<path class="st5" d="M301.3,208.3C301.3,208.3,301.3,208.3,301.3,208.3c-1.1,0.3-14.2,2.9-25-10.9c-0.7-0.9-1.4-1.8-1.9-2.7v0
				c-8.1-12.5-3.1-21.9-2.6-22.7c0,0,0,0,0,0s10.5-7.5,23.2,5.5c1.2,1.2,2.2,2.4,3.1,3.7C306.5,193.3,301.5,207.8,301.3,208.3z"/>
			<path class="st3" d="M301.3,208.3C301.3,208.3,301.3,208.3,301.3,208.3c-1.1,0.3-14.2,2.9-25-10.9c-0.7-0.9-1.4-1.8-1.9-2.7v0
				c0,0,7.7-13.1,23.7-13.6c1.7-0.1,3.6,0,5.5,0.3C303.6,181.4,308,194.2,301.3,208.3z"/>
			<path class="st8" d="M299.8,208.5c-3.9,0.4-14.5,0.4-23.4-11.1c-0.7-0.9-1.4-1.8-1.9-2.7"/>
		</g>
		<g>
			<path class="st10" d="M311.8,233c0,0,40.3-2.7,55.3,38.1"/>
			<path class="st10" d="M315.6,255.9c0,0,23,20.2,27.6,63.6"/>
			<path class="st10" d="M318,245.1c0,0,32,9.6,39.4,45.6"/>
		</g>
	</g>
</g>
<g id="LEFT_LEG">
	<g>
		<g>
			<path class="st1" d="M158.3,483.7c0,0,10.3,5.6,10.5,5.3c0.1-0.2,5.5-8.3,8.4-12.6c1.1-1.6,1.8-2.7,1.8-2.7l-12.7-6.5L162,476
				L158.3,483.7z"/>
			<path class="st5" d="M166.2,467.2L162,476c7.2,1.7,12.4,1,15.2,0.4c1.1-1.6,1.8-2.7,1.8-2.7L166.2,467.2z"/>
		</g>
		<g>
			<path class="st5" d="M175.8,481.2c0,0,15.5,16.4,17.9,16.7c2.3,0.4,13,2.6,13,2.6l4.2,17.2c0,0-40.4,0.7-61.3-3.7
				c0.2-11.5,3.2-24.8,8.8-33.6C163.5,482.1,169.4,482.4,175.8,481.2z"/>
			<g>
				<path class="st4" d="M188.2,503.7c0.2,0,0.4-0.1,0.6-0.3c0.2-0.3,0.1-0.7-0.2-0.9c-13.5-7.8-20.1-18.8-20.2-18.9
					c-0.2-0.3-0.6-0.4-0.9-0.2c-0.3,0.2-0.4,0.6-0.2,0.9c0.1,0.1,6.9,11.5,20.7,19.4C188,503.6,188.1,503.7,188.2,503.7z"/>
			</g>
			<path class="st2" d="M197.3,497.1c0,0,24.1-0.4,18.1,29.1c0,0-41,0.1-67.5-4.9l0.4-9c0,0,22.1,3.2,37.2,3
				C185.4,515.3,188.6,501.6,197.3,497.1z"/>
			<ellipse class="st11" cx="162.1" cy="499.5" rx="6.8" ry="8.2"/>
		</g>
		<path class="st4" d="M193.7,458.9c0,0-5.4,11.4-12.6,18.6c0,0-7.9-1.9-14.2-5.6s-8.4-7.5-8.4-7.5l7.8-17.8
			C176.9,447.3,186.1,451.2,193.7,458.9z"/>
		<path class="st3" d="M219.2,409.1c-15.6,26.4-31.2,51.7-31.2,51.7s-13.7-1.8-20-9.5c0,0,6.1-27.8,14.2-51.1
			c-7.7-6.2-11.5-9.1-19.3-15.3c-5.7-4.5-11-8.6-15.2-11.9c-6-4.6-9.8-7.6-9.8-7.6l-28.1-33.2c-25-29.9,11.6-69.4,31.9-49.5
			c0,0,50,57.9,71,85.8c1.5,2,3.2,4.3,4.9,6.6C224.9,385,225.5,398.4,219.2,409.1z"/>
		<polyline class="st8" points="144.1,353.8 193.7,398.7 175,450.3 		"/>
		<path class="st4" d="M207.9,374.8c11.7-1,18.5,31,1.2,35C191.8,413.8,192.5,376.1,207.9,374.8z"/>
	</g>
</g>
<g id="RIGHT_LEG">
	<g>
		<g>
			<polygon class="st1" points="78.1,501 89.8,505.8 97.2,494.5 100.2,490 85.2,484.2 81.4,493.1 			"/>
			<path class="st5" d="M81.4,493.1c5.5,1.5,10.9,1.8,15.8,1.3l2.9-4.5l-15-5.8L81.4,493.1z"/>
		</g>
		<g>
			<path class="st5" d="M95.8,498.9c0,0-9.8-4.7-18.6-1.1c0,0-4.9,8.8-6.6,24.1c0,0,6.1,19.4,19.5,20.9c13.4,1.5,24.1-1.8,24.1-1.8
				s-8.9-20.9-10.4-24.9C102.4,512.2,95.8,498.9,95.8,498.9z"/>
			<g>
				<path class="st4" d="M90.7,526.1c3.1,0,9.3-0.4,11.2-3.2c0.7-1.1,0.8-2.4,0.1-4c-3.2-6.9-6.8-17.6-6.9-17.7
					c-0.1-0.3-0.5-0.5-0.8-0.4c-0.3,0.1-0.5,0.5-0.4,0.8c0,0.1,3.7,10.9,6.9,17.8c0.5,1.1,0.5,2,0,2.7c-1.6,2.4-8.4,2.7-11.3,2.6
					c-0.9-2-5.4-12.5-7-23.2c-0.1-0.4-0.4-0.6-0.7-0.5c-0.4,0.1-0.6,0.4-0.5,0.7c1.9,12,7.2,23.8,7.3,23.9c0.1,0.2,0.3,0.4,0.6,0.4
					C89.3,526.1,89.9,526.1,90.7,526.1z"/>
			</g>
			
				<ellipse transform="matrix(0.2074 -0.9783 0.9783 0.2074 -440.4971 480.7265)" class="st11" cx="76.4" cy="512.2" rx="7.1" ry="2.7"/>
			<path class="st2" d="M106.6,516.3c0,0,19.2,11.8,10.2,35.5c0,0-23.5,3.5-32.6-0.7c-9.1-4.2-15.1-22-15.1-22s0.3-5.2,1.4-8.5
				c0,0,5.2,9.8,12.1,15.8C82.7,536.5,84,513,106.6,516.3z"/>
		</g>
		<g>
			<path class="st4" d="M115.9,476.6c0,0-11.4-11.4-28.8-11.1l-7.3,19c0,0,9.3,7.8,21.8,8.7L115.9,476.6z"/>
			<path class="st3" d="M145.3,436c-14.5,18.4-28.3,35.3-33.5,41.8c-3-0.2-14.2-1.6-23.5-9.1c4.2-9.2,14-37.9,21.7-55.4
				c-15.7-28.5-48.2-80-48.2-80c-13.5-53,35.5-77.5,53.7-52.1c0,0,18.8,38.4,29.3,75.3c2.9,10.2,6.2,25.1,9.6,41.5
				C157.1,411.3,153.8,425.2,145.3,436z"/>
			<path class="st8" d="M76.4,301.1L74,319c-0.9,6.4,0.7,13,4.4,18.3c10.2,15,31.8,47.9,42.8,73.9l-24.2,57.7"/>
			<path class="st8" d="M115.6,281.1c0,0,18.8,38.4,29.3,75.3c1.3,4.5,2.7,10.1,4.1,16.2"/>
			<path class="st8" d="M142.2,319.4l5.9,19.3c0.8,2.5,0.3,5.2-1.3,7.3l-3.6,4.8"/>
			<path class="st4" d="M143.1,395.7c11.9,1.2,12.8,34.3-5.2,35.1S127.4,394.2,143.1,395.7z"/>
		</g>
	</g>
</g>
<g id="BODY">
	<g>
		<g>
			<path class="st2" d="M169,155.5c0,0,15.3,6.9,31.2,19.8c-19.6,46.2-27.5,94.6-21.7,143.4c0,0-18.5,15.8-63,10.3
				c-42.3-5.2-59.2-30.9-59.2-30.9s11-111.6,61-140C117.3,158.2,146.8,147.5,169,155.5z"/>
			<path class="st6" d="M198.6,179.2c-7.7,18.8-13.5,38.1-17.2,57.5"/>
			<path class="st6" d="M157.6,165.1l-7.8,26.5c-0.4,1.5,0.4,3.1,1.9,3.6l2.9,1c1.6,0.6,3.4-0.4,3.8-2l7-26.7L157.6,165.1z"/>
			<path class="st6" d="M64.2,293.5c0,0,48,44.1,108.6,18.2"/>
		</g>
		<path class="st3" d="M169.3,147.9c3.7,1.1,7.7,4.3,9.7,6.1c0.8,0.7,1.1,1.9,0.7,2.9l-4.6,11.1c0,0-6.8,4.2-14.5,1
			c-7.7-3.2-9.7-9.6-9.7-9.6l2.7-11.4c0.2-1,1.1-1.8,2.2-1.9C158.1,145.8,162.5,145.9,169.3,147.9z"/>
		<g>
			<path class="st1" d="M168.1,136.5l-2.2,4.7l-5.2,11.2c0.2,0.2,0.4,0.3,0.7,0.5c3.9,2.7,8,3.7,11.1,3.9l1.4-6.6l1.9-9.2
				L168.1,136.5z"/>
			<path class="st5" d="M168.1,136.5l-2.2,4.7c1.1,2.7,3.4,5.9,7.9,9l1.9-9.2L168.1,136.5z"/>
		</g>
		<g>
			<path class="st4" d="M164,155.1c3.2,1.5,6.2,2.1,8.5,2.3c0.4,0,0.8,0,1.1,0.1c2.4,0.1,4.1-0.2,4.1-0.2c0.4-0.1,0.6-0.4,0.5-0.8
				c-0.1-0.3-0.4-0.6-0.8-0.5c0,0-1.5,0.3-3.8,0.2c-0.3,0-0.7,0-1.1-0.1c-2.8-0.2-6.9-1-10.8-3.8c-0.2-0.2-0.4-0.3-0.6-0.5
				c-1.6-1.2-3.1-2.7-4.4-4.4c-0.2-0.3-0.6-0.3-0.9-0.1c-0.3,0.2-0.3,0.6-0.1,0.9c1.4,1.8,2.9,3.4,4.6,4.7c0.2,0.2,0.4,0.3,0.7,0.5
				C162,154.1,163,154.6,164,155.1z"/>
		</g>
	</g>
</g>
<g id="HEAD">
	<g>
		<path class="st1" d="M189.9,108c11.5,6.9,1.3,36.2-2.5,39.7c-3.8,3.5-19.8-6.9-21.9-9.6c-2.1-2.7-0.7-14,1.4-20.8
			S176.5,100,189.9,108z"/>
		<g>
			<g>
				<path class="st5" d="M183.3,136.4c0,0,0.1,0,0.1,0c0.1,0,2.9,0.7,4.4-1.4c0.2-0.2,0.2-0.5,0-0.8c-1.4-2-1.8-6.1-1.8-6.1
					c0-0.4-0.3-0.6-0.7-0.6c-0.4,0-0.6,0.3-0.6,0.7c0,0.2,0.4,4,1.8,6.4c-1.1,1-2.8,0.6-2.8,0.6c-0.3-0.1-0.7,0.1-0.8,0.5
					C182.9,136,183,136.3,183.3,136.4z"/>
			</g>
			<g>
				<path class="st5" d="M178,139.6c3.4,1.6,6.1,1.3,6.3,1.3c0.4,0,0.6-0.4,0.6-0.7c0-0.4-0.4-0.6-0.7-0.6c0,0-3.7,0.5-7.5-2.3
					c-0.3-0.2-0.7-0.1-0.9,0.1c-0.2,0.3-0.1,0.7,0.1,0.9C176.6,138.8,177.3,139.2,178,139.6z"/>
			</g>
			<path class="st5" d="M182.2,122.9c0,0,0.3-2.6-0.2-3.2c-0.5-0.6-0.8,0.6-0.8,0.6s-4.9-2-6.4,3C174.6,123.3,177.4,121,182.2,122.9
				z"/>
			<path class="st5" d="M188.1,124c0,0,0.4-2.6,0.9-3.1s0.5,0.7,0.5,0.7s4-1.3,4.1,3.8C193.6,125.4,192.1,122.7,188.1,124z"/>
			<g>
				
					<ellipse transform="matrix(0.1714 -0.9852 0.9852 0.1714 22.8344 282.7924)" class="st5" cx="179.5" cy="127.8" rx="2.5" ry="2"/>
				<circle class="st12" cx="180.5" cy="127.4" r="0.7"/>
			</g>
			<g>
				<ellipse transform="matrix(0.1714 -0.9852 0.9852 0.1714 30.0861 294.2363)" class="st5" cx="190" cy="129.2" rx="2.5" ry="2"/>
				<circle class="st12" cx="190.9" cy="128.8" r="0.7"/>
			</g>
		</g>
		<path class="st5" d="M167.2,126.4l1.8-4c0,0,5.7-1.8,6.6-6.8c0,0,12.8,14.3,27.8,10.8c0,0-0.8-3.9-2.7-6.1c0,0,13.6-4,17.5-17.1
			c1.5-4.8-12.8-4.6-19-0.7c0,0,8.8-10.5,5.9-19.7c-0.9-2.7-12.9,3.4-19.3,11.4c0,0,2-7.8,0.2-11.8c-0.6-1.4-7.7,3.7-12.8,14
			c0,0-10.2,1-16.9,7.7c-6.7,6.7-7.2,19.8,8.5,28.3L167.2,126.4z"/>
		<g>
			<path class="st1" d="M167.2,126.4c0,0-0.3-11.2-7.3-10.7c-6.9,0.4-5.1,14.5,5.6,17.9L167.2,126.4z"/>
			<g>
				<g>
					<path class="st5" d="M163.3,130.2C163.4,130.2,163.4,130.3,163.3,130.2c0.4,0.1,0.8,0,0.9-0.4c0-0.1,2.5-8.1-3.7-11.2
						c0,0,0,0,0,0c-0.3-0.2-0.7,0-0.9,0.3c-0.2,0.3,0,0.7,0.3,0.9c5.2,2.6,3.1,9.6,3.1,9.6C162.9,129.8,163,130.1,163.3,130.2z"/>
				</g>
				<g>
					<path class="st5" d="M159.7,127.1c0.3,0.1,0.6,0.1,0.8-0.2c0,0,1.6-2.3,3.4-3.3c0.3-0.2,0.4-0.6,0.2-0.9
						c-0.2-0.3-0.6-0.4-0.9-0.2c-2,1.1-3.7,3.6-3.8,3.7C159.2,126.4,159.3,126.8,159.7,127.1C159.6,127,159.7,127.1,159.7,127.1z"/>
				</g>
			</g>
		</g>
	</g>
</g>
<g id="RIGHT_ARM">
	<g>
		<path class="st1" d="M118.5,346.1c0,0,3.7,13,4.3,17.9c0.6,5,0.6,15.7,2.9,16.3s4.3-1.1,4.3-1.1s2.3,1.8,3.9,1.3
			c1.7-0.5,2.7-1.4,2.7-1.4s3,1.1,4.5,0.8s3-2,3-2s2.9,1.7,5.3-0.6c2.5-2.3,1.4-17.2-1-20.5c-2.3-3.3-12.7-13.4-12.7-13.4
			L118.5,346.1z"/>
		<path class="st7" d="M129,365.2c0,0,0.6,7.5,0.8,12.1"/>
		<path class="st7" d="M135.6,364.6c0,0,1,8.8,0.9,12.7"/>
		<path class="st7" d="M142.2,363.4c0,0,1.5,8.2,1.6,12.2"/>
		<g>
			<path class="st3" d="M114.5,334.4l2.5,13.4c0,0,4.3,5.2,12.8,3c8.6-2.1,9.7-7.9,9.7-7.9v-12.6L114.5,334.4z"/>
			<path class="st8" d="M114.5,334.4l2.5,13.4c0,0,4.3,5.2,12.8,3c8.6-2.1,9.7-7.9,9.7-7.9v-12.6L114.5,334.4z"/>
		</g>
		<g>
			<path class="st2" d="M115.6,159.3C87.4,162.1,88,200.9,91,231.2s17.7,101.5,17.7,101.5s6.6,10.8,18.6,8.7
				c12-2.2,14.8-12.2,14.8-12.2s-2.4-97.8-2.6-123.7S132.8,157.5,115.6,159.3z"/>
			<path class="st6" d="M89.6,205.4c-0.1,8.6,0.6,17.5,1.4,25.8c3,30.3,17.7,101.5,17.7,101.5s6.6,10.8,18.6,8.7
				c12-2.2,14.8-12.2,14.8-12.2s-2.4-97.8-2.6-123.7c-0.2-22.9-5.3-42.7-18.4-45.8"/>
		</g>
	</g>
</g>
</svg>
